<svg xmlns="http://www.w3.org/2000/svg" viewBox="0 0 200 200" width="512" height="512">
  <path fill="#e2e8f0" d="M80.4,28.74c3.47,0,11.09,5.72,11.09,5.72S98,32.2,98.22,28.74,104.94,35,104.94,35s7.75-8.91,8.26-4.12,7,12.37,7,12.37,7.9-12.87,8.41-7.28,6,13.13,6,13.13,3.91-1.4,5.69-3.79S143.15,56,143.15,56l4.43,32.59A29.75,29.75,0,0,1,152,104.89a25.43,25.43,0,0,1-5.53,16.29l-9.95,27.94c-4.42,9.31-22.11,23.27-35.38,23.27s-31-14-35.39-23.27l-10-27.94a25.49,25.49,0,0,1-5.53-16.29A29.76,29.76,0,0,1,54.7,88.6V49c0-1.53,4.42,2.32,4.42,2.32s5.73-14.5,8.85-14C67.64,39.78,70.18,42,70.18,42S76.94,28.75,80.4,28.74Zm26.07,31C94.65,52,86.56,58.4,74.75,58.4Q65.89,63,63.67,79.29h0l-2.21,30.19c0,8.12,10,32.5,11.07,34.82C81.39,160.55,99.11,164,101.32,164s19.93-3.48,28.79-19.73c1.11-2.32,11.08-26.7,11.08-34.82l-1.11-25.54L134.54,70,129,66.94,123.47,64s-4.88-1-5.82-1.3-1.2-.56-4.05-1.69M78.69,93.42a6.39,6.39,0,1,0,6.09,6.39,6.25,6.25,0,0,0-6.09-6.39m45.92.85a6.39,6.39,0,1,0,6.09,6.39,6.25,6.25,0,0,0-6.09-6.39M68.87,95.39a11.24,11.24,0,0,1,7.08-6c3.66-.93,7.87.12,11.85,3.25A2.22,2.22,0,0,0,90.9,92a2.46,2.46,0,0,0-.55-3.25c-6.53-4.88-12.07-4.88-15.5-4a15.37,15.37,0,0,0-10,8.48,2.38,2.38,0,0,0,1,3.13,3,3,0,0,0,1,.23A2.33,2.33,0,0,0,68.87,95.39Zm68.88,0a2.43,2.43,0,0,0,.22-3.25c-4-4.76-8.63-7.2-13.84-7.08q-5.64,0-12.29,4.18a2.26,2.26,0,0,0-.78,3.13,2.05,2.05,0,0,0,3,.81c3.77-2.32,7.09-3.48,10.19-3.48,3.88,0,7.31,1.74,10.52,5.46a2,2,0,0,0,1.66.81A2.52,2.52,0,0,0,137.75,95.43Zm-46,43.23c4.45,3,14,1.79,20.92,2.69a2.54,2.54,0,0,1,2.68,2.12c.09,1.31-2.57,2.4-2.57,2.4s-21.44-.42-22.65-1.27-3.58-5.43-2.83-6.37C88.19,137.1,90.12,137.38,91.74,138.66Zm5.91-17.37h8.6c.66,0,1.24.76,1.28,1.75s-.53,2-1.23,2H97.73c-.66,0-1.24-.76-1.27-1.76s.52-2,1.22-2"/>
</svg>
